<?xml version="1.0" encoding="UTF-8" standalone="no"?>
<!-- Created with Inkscape (http://www.inkscape.org/) -->

<svg
   width="41"
   height="41"
   viewBox="0 0 10.847916 10.847917"
   version="1.1"
   id="svg1"
   inkscape:version="1.3.2 (091e20e, 2023-11-25, custom)"
   sodipodi:docname="source_texSynthCrosshairTimer.svg"
   inkscape:export-filename="texSynthCrosshairTimer.png"
   inkscape:export-xdpi="96"
   inkscape:export-ydpi="96"
   xmlns:inkscape="http://www.inkscape.org/namespaces/inkscape"
   xmlns:sodipodi="http://sodipodi.sourceforge.net/DTD/sodipodi-0.dtd"
   xmlns="http://www.w3.org/2000/svg"
   xmlns:svg="http://www.w3.org/2000/svg">
  <sodipodi:namedview
     id="namedview1"
     pagecolor="#505050"
     bordercolor="#eeeeee"
     borderopacity="1"
     inkscape:showpageshadow="0"
     inkscape:pageopacity="0"
     inkscape:pagecheckerboard="0"
     inkscape:deskcolor="#505050"
     inkscape:document-units="px"
     inkscape:zoom="5.6568542"
     inkscape:cx="-10.253048"
     inkscape:cy="50.29297"
     inkscape:window-width="1920"
     inkscape:window-height="1009"
     inkscape:window-x="-8"
     inkscape:window-y="-8"
     inkscape:window-maximized="1"
     inkscape:current-layer="layer1" />
  <defs
     id="defs1" />
  <g
     inkscape:label="Layer 1"
     inkscape:groupmode="layer"
     id="layer1">
    <path
       id="path1"
       style="display:none;fill:#ffffff;fill-opacity:1;stroke:none;stroke-width:2.646;stroke-linejoin:round;stroke-dasharray:none;stroke-opacity:1;paint-order:stroke markers fill"
       d="M 5.4239583,0 A 5.4239583,5.4239583 0 0 0 0,5.4239583 5.4239583,5.4239583 0 0 0 5.4239583,10.847917 5.4239583,5.4239583 0 0 0 10.847917,5.4239583 5.4239583,5.4239583 0 0 0 5.4239583,0 Z m 0,2.7119792 A 2.7119792,2.7119792 0 0 1 8.1359375,5.4239583 2.7119792,2.7119792 0 0 1 5.4239583,8.1359375 2.7119792,2.7119792 0 0 1 2.7119792,5.4239583 2.7119792,2.7119792 0 0 1 5.4239583,2.7119792 Z" />
    <path
       id="path3"
       style="display:none;fill:#ffffff;fill-opacity:1;stroke:none;stroke-width:2.646;stroke-linejoin:round;stroke-dasharray:none;stroke-opacity:1;paint-order:stroke markers fill"
       d="M 5.4239583,0 C 2.4283888,0 0,2.4283888 0,5.4239583 c -2.2091391e-7,2.9955696 2.4283887,5.4239587 5.4239583,5.4239587 2.9955698,0 5.4239587,-2.4283889 5.4239587,-5.4239587 C 10.847917,2.4283887 8.4195279,-2.2091391e-7 5.4239583,0 Z"
       sodipodi:nodetypes="sssss" />
    <path
       id="path2"
       style="display:inline;fill:#ffffff;fill-opacity:1;stroke:none;stroke-width:2.646;stroke-linejoin:round;stroke-dasharray:none;stroke-opacity:1;paint-order:stroke markers fill"
       d="M 5.4239583,0 A 5.4239583,5.4239583 0 0 0 0,5.4239583 5.4239583,5.4239583 0 0 0 5.4239583,10.847917 5.4239583,5.4239583 0 0 0 10.847917,5.4239583 5.4239583,5.4239583 0 0 0 5.4239583,0 Z m 0,2.7119792 A 2.7119792,2.7119792 0 0 1 8.1359375,5.4239583 2.7119792,2.7119792 0 0 1 5.4239583,8.1359375 2.7119792,2.7119792 0 0 1 2.7119792,5.4239583 2.7119792,2.7119792 0 0 1 5.4239583,2.7119792 Z" />
    <path
       id="rect1"
       style="display:inline;fill:#000000;fill-opacity:1;stroke:none;stroke-width:2;stroke-linejoin:round;stroke-dasharray:none;stroke-opacity:1;paint-order:stroke markers fill"
       d="M 5.4239582,3.8364581 -8.5031851,17.7636 5.4239585,31.690744 19.351102,17.763601 Z m 6e-7,4.4068149 9.5206942,9.520692 -9.5206945,9.520695 -9.520694,-9.520694 z" />
  </g>
</svg>
