<?xml version="1.0" encoding="UTF-8" standalone="no"?>
<!-- Created with Inkscape (http://www.inkscape.org/) -->

<svg
   width="45"
   height="45"
   viewBox="0 0 11.906249 11.90625"
   version="1.1"
   id="svg1"
   inkscape:version="1.3.2 (091e20e, 2023-11-25, custom)"
   sodipodi:docname="source_texSynthCrosshairTimer.svg"
   inkscape:export-filename="texSynthCrosshairTimer.png"
   inkscape:export-xdpi="96"
   inkscape:export-ydpi="96"
   xmlns:inkscape="http://www.inkscape.org/namespaces/inkscape"
   xmlns:sodipodi="http://sodipodi.sourceforge.net/DTD/sodipodi-0.dtd"
   xmlns="http://www.w3.org/2000/svg"
   xmlns:svg="http://www.w3.org/2000/svg">
  <sodipodi:namedview
     id="namedview1"
     pagecolor="#505050"
     bordercolor="#eeeeee"
     borderopacity="1"
     inkscape:showpageshadow="0"
     inkscape:pageopacity="0"
     inkscape:pagecheckerboard="0"
     inkscape:deskcolor="#505050"
     inkscape:document-units="px"
     inkscape:zoom="5.6568542"
     inkscape:cx="-8.1317281"
     inkscape:cy="27.135223"
     inkscape:window-width="1920"
     inkscape:window-height="1009"
     inkscape:window-x="-8"
     inkscape:window-y="-8"
     inkscape:window-maximized="1"
     inkscape:current-layer="layer1" />
  <defs
     id="defs1" />
  <g
     inkscape:label="Layer 1"
     inkscape:groupmode="layer"
     id="layer1">
    <path
       id="path1"
       style="display:inline;fill:#ffffff;fill-opacity:1;stroke:none;stroke-width:2.646;stroke-linejoin:round;stroke-dasharray:none;stroke-opacity:1;paint-order:stroke markers fill"
       d="M 5.9531246,0 A 5.9531246,5.9531246 0 0 0 0,5.9531246 5.9531246,5.9531246 0 0 0 5.9531246,11.90625 5.9531246,5.9531246 0 0 0 11.90625,5.9531246 5.9531246,5.9531246 0 0 0 5.9531246,0 Z m 0,2.9765623 A 2.9765623,2.9765623 0 0 1 8.9296869,5.9531246 2.9765623,2.9765623 0 0 1 5.9531246,8.9296869 2.9765623,2.9765623 0 0 1 2.9765623,5.9531246 2.9765623,2.9765623 0 0 1 5.9531246,2.9765623 Z" />
    <path
       id="path3"
       style="display:none;fill:#ffffff;fill-opacity:1;stroke:none;stroke-width:2.646;stroke-linejoin:round;stroke-dasharray:none;stroke-opacity:1;paint-order:stroke markers fill"
       d="M 5.9531246,0 C 2.6653046,0 0,2.6653046 0,5.9531246 -2.4246647e-7,9.2409446 2.6653045,11.90625 5.9531246,11.90625 9.2409448,11.90625 11.90625,9.2409448 11.90625,5.9531246 11.90625,2.6653045 9.2409446,-2.4246647e-7 5.9531246,0 Z"
       sodipodi:nodetypes="sssss" />
    <path
       id="path2"
       style="display:none;fill:#ffffff;fill-opacity:1;stroke:none;stroke-width:2.646;stroke-linejoin:round;stroke-dasharray:none;stroke-opacity:1;paint-order:stroke markers fill"
       d="M 5.9531246,0 A 5.9531246,5.9531246 0 0 0 0,5.9531246 5.9531246,5.9531246 0 0 0 5.9531246,11.90625 5.9531246,5.9531246 0 0 0 11.90625,5.9531246 5.9531246,5.9531246 0 0 0 5.9531246,0 Z m 0,2.9765623 A 2.9765623,2.9765623 0 0 1 8.9296869,5.9531246 2.9765623,2.9765623 0 0 1 5.9531246,8.9296869 2.9765623,2.9765623 0 0 1 2.9765623,5.9531246 2.9765623,2.9765623 0 0 1 5.9531246,2.9765623 Z" />
    <path
       id="rect1"
       style="display:none;fill:#000000;fill-opacity:1;stroke:none;stroke-width:2;stroke-linejoin:round;stroke-dasharray:none;stroke-opacity:1;paint-order:stroke markers fill"
       d="M -9.8634514,20.372921 5.9161909,37.2109 21.695832,20.372922 5.9161919,4.5932688 Z m 3.7403582,0 L 5.9166319,8.3331865 17.956359,20.372923 5.9166339,32.412651 Z"
       sodipodi:nodetypes="cccccccccc" />
  </g>
</svg>
